<svg id="Layer_1" data-name="Layer 1" xmlns="http://www.w3.org/2000/svg" viewBox="0 0 32 32"><defs><style>.cls-1{fill:#5261f5;}</style></defs><polygon class="cls-1" points="2.92 4.26 6.15 4.26 6.15 2.54 1.2 2.54 1.2 9.17 2.92 9.17 2.92 4.26"/><polygon class="cls-1" points="25.85 4.26 29.08 4.26 29.08 9.17 30.8 9.17 30.8 2.54 25.85 2.54 25.85 4.26"/><polygon class="cls-1" points="29.08 27.61 25.85 27.61 25.85 29.33 30.8 29.33 30.8 22.7 29.08 22.7 29.08 27.61"/><polygon class="cls-1" points="2.92 22.7 1.2 22.7 1.2 29.33 6.15 29.33 6.15 27.61 2.92 27.61 2.92 22.7"/><path class="cls-1" d="M9.08,22.65,6.39,29.46H8.15l.48-1.32h2.58l.48,1.32h1.79l-2.7-6.81Zm.06,4.07.78-2.18.78,2.18Z"/><path class="cls-1" d="M18.76,26l-.12-.05a1.73,1.73,0,0,0,.58-.56,1.65,1.65,0,0,0,.25-.92,1.61,1.61,0,0,0-.59-1.29,2.82,2.82,0,0,0-1.8-.49H14v6.81h3.29A3,3,0,0,0,19.13,29a1.64,1.64,0,0,0,.64-1.37,1.79,1.79,0,0,0-.27-1A1.63,1.63,0,0,0,18.76,26ZM15.67,24h1.19a1.13,1.13,0,0,1,.65.16.58.58,0,0,1,.22.5.56.56,0,0,1-.22.49,1.05,1.05,0,0,1-.65.17H15.67Zm2.12,3.86a1.12,1.12,0,0,1-.67.17H15.67V26.69h1.45a1.12,1.12,0,0,1,.67.17.7.7,0,0,1,0,1Z"/><polygon class="cls-1" points="5.31 18.63 2.62 15 1.2 15 1.2 21.81 2.89 21.81 2.89 18.18 5.58 21.81 7 21.81 7 15 5.31 15 5.31 18.63"/><polygon class="cls-1" points="9.95 19.48 12.64 19.48 12.64 17.99 9.95 17.99 9.95 16.49 13 16.49 13 15 8.22 15 8.22 21.81 9.95 21.81 9.95 19.48"/><path class="cls-1" d="M15.46,21.69A3.48,3.48,0,0,0,16.8,22a3.36,3.36,0,0,0,1.51-.34,3.07,3.07,0,0,0,1.11-.95l-1.1-1.11a2.25,2.25,0,0,1-.64.6,1.63,1.63,0,0,1-.79.2,1.58,1.58,0,0,1-.69-.14,1.5,1.5,0,0,1-.54-.39,2,2,0,0,1-.34-.62,2.5,2.5,0,0,1,0-1.59,2,2,0,0,1,.34-.62,1.5,1.5,0,0,1,.54-.39,1.58,1.58,0,0,1,.69-.14,1.63,1.63,0,0,1,.79.2,2.25,2.25,0,0,1,.64.6l1.1-1.11a3.09,3.09,0,0,0-1.11-1,3.35,3.35,0,0,0-1.51-.33,3.48,3.48,0,0,0-1.34.26,3,3,0,0,0-1.06.74A3.38,3.38,0,0,0,13.7,17a4.19,4.19,0,0,0,0,2.85A3.38,3.38,0,0,0,14.4,21,3,3,0,0,0,15.46,21.69Z"/></svg>