<?xml version="1.0" encoding="utf-8"?>
<!-- Generator: Adobe Illustrator 16.0.0, SVG Export Plug-In . SVG Version: 6.00 Build 0)  -->
<!DOCTYPE svg PUBLIC "-//W3C//DTD SVG 1.1//EN" "http://www.w3.org/Graphics/SVG/1.1/DTD/svg11.dtd">
<svg version="1.1" id="Layer_1" xmlns="http://www.w3.org/2000/svg" xmlns:xlink="http://www.w3.org/1999/xlink" x="0px" y="0px"
	 width="64px" height="64px" viewBox="0 0 64 64" enable-background="new 0 0 64 64" xml:space="preserve">
<path fill="#0A2540" d="M56.8,49.601c-3.127,0-5.785,2.009-6.777,4.801h-3.219V42.67h6.531c5.895,0,10.664-4.779,10.664-10.67
	c0-4.437-2.707-8.236-6.561-9.843c0.791-1.895,1.225-3.974,1.225-6.151c0-8.847-7.158-16.005-15.994-16.005
	c-5.508,0-10.367,2.781-13.242,7.017c-1.658-0.734-3.496-1.148-5.426-1.148c-7.365,0-13.332,5.967-13.332,13.332
	c0,0.729,0.057,1.438,0.172,2.135h-0.172C4.774,21.336,0.001,26.109,0.001,32s4.773,10.67,10.668,10.67H17.2v11.731h-3.219
	c-0.99-2.792-3.652-4.801-6.779-4.801c-3.969,0-7.201,3.233-7.201,7.202s3.232,7.196,7.201,7.196c3.127,0,5.789-2.003,6.779-4.796
	h5.619c1.328,0,2.402-1.078,2.402-2.4V42.67h7.598v6.931c0,0.142,0.02,0.271,0.041,0.408c-2.813,0.975-4.84,3.652-4.84,6.794
	c0,3.969,3.23,7.196,7.199,7.196s7.199-3.228,7.199-7.196c0-3.142-2.025-5.819-4.842-6.794c0.025-0.137,0.043-0.267,0.043-0.408
	V42.67h7.6v14.133c0,1.322,1.072,2.4,2.398,2.4h5.623c0.992,2.793,3.65,4.796,6.777,4.796c3.973,0,7.199-3.228,7.199-7.196
	S60.772,49.601,56.8,49.601z"/>
</svg>
